<svg width="12" height="12" viewBox="0 0 12 12" fill="none" xmlns="http://www.w3.org/2000/svg">
<path d="M4.66627 7.33293C4.88352 7.55467 5.14283 7.73082 5.42902 7.85108C5.7152 7.97133 6.02251 8.03327 6.33293 8.03327C6.64336 8.03327 6.95066 7.97133 7.23685 7.85108C7.52303 7.73082 7.78235 7.55467 7.9996 7.33293L10.6663 4.66627C11.1083 4.22424 11.3566 3.62472 11.3566 2.9996C11.3566 2.37448 11.1083 1.77496 10.6663 1.33293C10.2242 0.890907 9.62472 0.642578 8.9996 0.642578C8.37448 0.642578 7.77496 0.890907 7.33293 1.33293L6.9996 1.66627M7.33293 4.66627C7.11568 4.44454 6.85637 4.26838 6.57018 4.14813C6.284 4.02787 5.97669 3.96593 5.66627 3.96593C5.35584 3.96593 5.04854 4.02787 4.76235 4.14813C4.47617 4.26838 4.21685 4.44454 3.9996 4.66627L1.33293 7.33293C0.890907 7.77496 0.642578 8.37448 0.642578 8.9996C0.642578 9.62472 0.890907 10.2242 1.33293 10.6663C1.77496 11.1083 2.37448 11.3566 2.9996 11.3566C3.62472 11.3566 4.22424 11.1083 4.66627 10.6663L4.9996 10.3329" stroke="#563FE3" stroke-width="1.2" stroke-linecap="round" stroke-linejoin="round"/>
</svg>
